<svg xmlns="http://www.w3.org/2000/svg" viewBox="0 0 96 96" role="img" aria-labelledby="title">
  <title id="title">文证</title>
  <defs>
    <linearGradient id="paper" x1="0" y1="0" x2="1" y2="1">
      <stop offset="0" stop-color="#fffdf8"/>
      <stop offset="1" stop-color="#f2eadf"/>
    </linearGradient>
    <linearGradient id="ink" x1="0" y1="0" x2="1" y2="1">
      <stop offset="0" stop-color="#223b65"/>
      <stop offset="1" stop-color="#13233f"/>
    </linearGradient>
  </defs>
  <rect x="2" y="2" width="92" height="92" rx="22" fill="url(#paper)"/>
  <path d="M18 24c11-2 20 0 29 7v42c-9-7-18-9-29-6V24Z" fill="url(#ink)"/>
  <path d="M78 24c-11-2-20 0-29 7v42c9-7 18-9 29-6V24Z" fill="none" stroke="#183056" stroke-width="6" stroke-linejoin="round"/>
  <path d="M18 73c11-3 20-1 30 7 10-8 19-10 30-7" fill="none" stroke="#183056" stroke-width="6" stroke-linecap="round"/>
  <circle cx="62" cy="48" r="17" fill="#fffaf2" stroke="#183056" stroke-width="6"/>
  <path d="m74 60 11 11" fill="none" stroke="#183056" stroke-width="7" stroke-linecap="round"/>
  <path d="m53 48 6 6 11-13" fill="none" stroke="#c92f2a" stroke-width="6" stroke-linecap="round" stroke-linejoin="round"/>
</svg>
